<svg width="147" height="61" viewBox="0 0 147 61" fill="none" xmlns="http://www.w3.org/2000/svg">
<path d="M54.6242 60.9444C54.6242 60.9444 59.5314 60.9443 61.5803 60.9001C64.0306 60.8476 66.5122 59.9286 68.3725 57.0714C71.7348 51.9073 71.7348 43.5351 68.3725 38.371C66.6915 35.7892 63.4542 34.498 61.251 34.498C59.0479 34.498 54.689 34.498 54.689 34.498C51.3267 39.6621 51.2623 55.7806 54.6242 60.9444Z" fill="black"/>
<path d="M54.6897 60.945C59.4446 60.945 63.2993 55.0248 63.2993 47.722C63.2993 40.4191 59.4446 34.499 54.6897 34.499C49.9347 34.499 46.0801 40.4191 46.0801 47.722C46.0801 55.0248 49.9347 60.945 54.6897 60.945Z" fill="#263238"/>
<path opacity="0.4" d="M54.6884 55.8286C57.6035 55.8286 59.9667 52.199 59.9667 47.7217C59.9667 43.2443 57.6035 39.6147 54.6884 39.6147C51.7733 39.6147 49.4102 43.2443 49.4102 47.7217C49.4102 52.199 51.7733 55.8286 54.6884 55.8286Z" fill="white"/>
<g opacity="0.3">
<path d="M54.2676 41.0752L54.2676 45.2308C54.2676 45.5883 54.4562 45.8783 54.6891 45.8783L54.6919 45.8783C54.9248 45.8783 55.1135 45.5883 55.1135 45.2308L55.1135 41.0752C55.1135 40.7177 54.9248 40.4277 54.6919 40.4277L54.6891 40.4277C54.4566 40.4277 54.2676 40.7177 54.2676 41.0752Z" fill="white"/>
</g>
<g opacity="0.3">
<path d="M54.2676 50.209L54.2676 54.3646C54.2676 54.7221 54.4562 55.0121 54.6891 55.0121L54.6919 55.0121C54.9248 55.0121 55.1135 54.7225 55.1135 54.3646L55.1135 50.209C55.1135 49.8515 54.9248 49.5615 54.6919 49.5615L54.6891 49.5615C54.4566 49.5619 54.2676 49.8515 54.2676 50.209Z" fill="white"/>
</g>
<g opacity="0.3">
<path d="M53.0807 47.0405C53.2819 47.2153 53.5374 47.1067 53.6513 46.7972L53.6513 46.7969C53.7682 46.4877 53.7 46.0916 53.4988 45.9116L51.1547 43.8234L51.1537 43.8223C50.9518 43.6445 50.6942 43.7513 50.5782 44.0615C50.5779 44.0622 50.5779 44.0625 50.5775 44.0632C50.4616 44.3734 50.5312 44.7688 50.7331 44.947L53.0745 47.0353C53.0766 47.0374 53.0787 47.0391 53.0807 47.0405Z" fill="white"/>
</g>
<g opacity="0.3">
<path d="M58.8042 51.3503C58.8045 51.3496 58.8045 51.3492 58.8049 51.3485C58.9208 51.0384 58.8512 50.6429 58.6493 50.4647L56.308 48.3764C56.1061 48.1961 55.8471 48.3005 55.7287 48.6104C55.6118 48.9219 55.681 49.3198 55.8836 49.5001L58.225 51.5884C58.4276 51.768 58.6869 51.6615 58.8042 51.3503Z" fill="white"/>
</g>
<g opacity="0.3">
<path d="M50.5786 51.3689C50.6952 51.6783 50.9528 51.7842 51.1543 51.6052L53.4984 49.517C53.7 49.3356 53.7682 48.9377 53.6509 48.6272L53.6509 48.6269C53.5336 48.3178 53.2757 48.2133 53.0745 48.3933L50.7331 50.4816L50.7321 50.4826C50.5305 50.6615 50.4616 51.0577 50.5782 51.3671C50.5782 51.3671 50.5786 51.3682 50.5786 51.3689Z" fill="white"/>
</g>
<g opacity="0.3">
<path d="M55.7291 46.804C55.8468 47.1125 56.105 47.2162 56.3059 47.0355L58.6472 44.9473L58.6483 44.9462C58.8498 44.7673 58.9187 44.3712 58.8021 44.0617C58.6848 43.7505 58.4255 43.644 58.2229 43.8236L55.8816 45.9119L55.8805 45.9129C55.679 46.0918 55.61 46.488 55.7267 46.7974C55.7277 46.7995 55.7284 46.8016 55.7291 46.804Z" fill="white"/>
</g>
<path d="M54.6883 46.6299C54.2963 46.6299 53.9785 47.1179 53.9785 47.7201C53.9785 48.3224 54.2963 48.8104 54.6883 48.8104C55.0803 48.8104 55.3981 48.3224 55.3981 47.7201C55.3981 47.1179 55.0803 46.6299 54.6883 46.6299Z" fill="#263238"/>
<path opacity="0.3" d="M54.6897 60.945C59.4446 60.945 63.2993 55.0248 63.2993 47.722C63.2993 40.4191 59.4446 34.499 54.6897 34.499C49.9347 34.499 46.0801 40.4191 46.0801 47.722C46.0801 55.0248 49.9347 60.945 54.6897 60.945Z" fill="black"/>
<path d="M80.8927 53.4505C80.8927 53.4505 82.7425 32.9683 69.9609 32.9683C69.9609 32.9683 62.9672 33.0487 61.8418 42.6148C60.7164 52.181 61.4398 53.4505 61.4398 53.4505L80.8927 53.4505Z" fill="#34A853"/>
<path opacity="0.3" d="M80.8927 53.4505C80.8927 53.4505 82.7425 32.9683 69.9609 32.9683C69.9609 32.9683 62.9672 33.0487 61.8418 42.6148C60.7164 52.181 61.4398 53.4505 61.4398 53.4505L80.8927 53.4505Z" fill="black"/>
<path d="M22.4134 54.2656C22.4134 54.2656 24.4453 32.4212 11.0817 29.8174C11.0817 29.8174 3.54423 29.9096 2.33144 40.8905C1.11866 51.8713 6.39587 53.765 6.39587 53.765L22.4134 54.2656Z" fill="#34A853"/>
<path opacity="0.3" d="M22.4134 54.2656C22.4134 54.2656 24.4453 32.4212 11.0817 29.8174C11.0817 29.8174 3.54423 29.9096 2.33144 40.8905C1.11866 51.8713 6.39587 53.765 6.39587 53.765L22.4134 54.2656Z" fill="black"/>
<path d="M10.7156 60.3472C10.7156 60.3472 15.2716 60.3472 17.1736 60.303C19.4485 60.2504 21.7525 59.3314 23.4795 56.4742C26.6009 51.3101 26.6009 42.9379 23.4795 37.7738C21.9189 35.192 18.9134 33.9009 16.868 33.9009C14.8225 33.9009 10.7755 33.9009 10.7755 33.9009C7.65409 39.065 7.59422 55.1831 10.7156 60.3472Z" fill="black"/>
<path d="M10.7744 60.3461C15.1888 60.3461 18.7675 54.4258 18.7675 47.1227C18.7675 39.8197 15.1888 33.8994 10.7744 33.8994C6.35988 33.8994 2.78125 39.8197 2.78125 47.1227C2.78125 54.4258 6.35988 60.3461 10.7744 60.3461Z" fill="#263238"/>
<path opacity="0.4" d="M7.30844 52.8568C9.22196 56.0228 12.3249 56.0228 14.2384 52.8568C16.1523 49.6908 16.1523 44.558 14.2384 41.3921C12.3249 38.2261 9.22196 38.2261 7.30844 41.3921C5.39458 44.558 5.39458 49.6908 7.30844 52.8568Z" fill="white"/>
<g opacity="0.3">
<path d="M10.3828 40.4785L10.3828 44.6342C10.3828 44.9917 10.5579 45.2816 10.7741 45.2816L10.7765 45.2816C10.9927 45.2816 11.1678 44.9917 11.1678 44.6342L11.1678 40.4785C11.1678 40.121 10.9927 39.8311 10.7765 39.8311L10.7741 39.8311C10.5583 39.8311 10.3828 40.121 10.3828 40.4785Z" fill="white"/>
</g>
<g opacity="0.3">
<path d="M10.3828 49.6133L10.3828 53.7689C10.3828 54.1264 10.5579 54.4164 10.7741 54.4164L10.7765 54.4164C10.9927 54.4164 11.1678 54.1268 11.1678 53.7689L11.1678 49.6133C11.1678 49.2558 10.9927 48.9658 10.7765 48.9658L10.7741 48.9658C10.5583 48.9658 10.3828 49.2558 10.3828 49.6133Z" fill="white"/>
</g>
<g opacity="0.3">
<path d="M9.28055 46.4425C9.46748 46.6173 9.70454 46.5087 9.81036 46.1992L9.81036 46.1989C9.91897 45.8898 9.85562 45.4936 9.66869 45.3137L7.49236 43.2254L7.49131 43.2243C7.30403 43.0461 7.06454 43.1533 6.95698 43.4635C6.95663 43.4642 6.95663 43.4645 6.95628 43.4652C6.84872 43.7754 6.91346 44.1708 7.10074 44.3491L9.27429 46.4373C9.27672 46.4391 9.27881 46.4408 9.28055 46.4425Z" fill="white"/>
</g>
<g opacity="0.3">
<path d="M14.5938 50.7541C14.5938 50.7541 14.5941 50.753 14.5945 50.7523C14.7021 50.4422 14.6373 50.0467 14.45 49.8685L12.2761 47.7802C12.0885 47.5999 11.848 47.7043 11.7383 48.0142C11.6297 48.3257 11.6941 48.7236 11.8821 48.9039L14.0556 50.9922C14.2443 51.1718 14.4848 51.0653 14.5938 50.7541Z" fill="white"/>
</g>
<g opacity="0.3">
<path d="M6.95696 50.7712C7.06522 51.0807 7.30436 51.1865 7.49164 51.0076L9.66797 48.9193C9.85525 48.7379 9.91825 48.3401 9.8093 48.0296C9.70034 47.7204 9.46085 47.6157 9.27427 47.7956L7.10072 49.8839C7.10038 49.8843 7.10003 49.8846 7.09968 49.8849C6.91275 50.0639 6.8487 50.46 6.95696 50.7695C6.95661 50.7702 6.95696 50.7709 6.95696 50.7712Z" fill="white"/>
</g>
<g opacity="0.3">
<path d="M11.7406 46.2059C11.8499 46.5143 12.0894 46.6181 12.276 46.4374L14.4496 44.3491L14.4506 44.3481C14.6375 44.1692 14.7016 43.773 14.5933 43.4636C14.4844 43.1524 14.2438 43.0458 14.0555 43.2255L11.882 45.3137L11.8809 45.3148C11.694 45.4937 11.6299 45.8898 11.7382 46.1993C11.7389 46.2014 11.7396 46.2035 11.7406 46.2059Z" fill="white"/>
</g>
<path d="M10.7742 46.0313C10.4104 46.0313 10.1152 46.5193 10.1152 47.1215C10.1152 47.7234 10.4101 48.2118 10.7742 48.2118C11.1383 48.2118 11.4331 47.7237 11.4331 47.1215C11.4331 46.5196 11.1383 46.0313 10.7742 46.0313Z" fill="#263238"/>
<path d="M70.3724 60.9444C70.3724 60.9444 75.2796 60.9443 77.3285 60.9001C79.7788 60.8476 82.2604 59.9286 84.1207 57.0714C87.483 51.9073 87.483 43.5351 84.1207 38.371C82.4397 35.7892 79.2023 34.498 76.9992 34.498C74.7957 34.498 70.4372 34.498 70.4372 34.498C67.0748 39.6621 67.0101 55.7806 70.3724 60.9444Z" fill="black"/>
<path d="M70.4377 60.944C75.1927 60.944 79.0473 55.0239 79.0473 47.721C79.0473 40.4182 75.1927 34.498 70.4377 34.498C65.6828 34.498 61.8281 40.4182 61.8281 47.721C61.8281 55.0239 65.6828 60.944 70.4377 60.944Z" fill="#263238"/>
<path opacity="0.4" d="M66.706 53.4539C68.7674 56.6199 72.1092 56.6199 74.1707 53.4539C76.2321 50.288 76.2321 45.1552 74.1707 41.9892C72.1096 38.8233 68.7674 38.8233 66.706 41.9892C64.6449 45.1552 64.6449 50.288 66.706 53.4539Z" fill="white"/>
<g opacity="0.3">
<path d="M70.0156 41.0752L70.0156 45.2308C70.0156 45.5883 70.2043 45.8783 70.4372 45.8783L70.44 45.8783C70.6728 45.8783 70.8615 45.5883 70.8615 45.2308L70.8615 41.0752C70.8615 40.7177 70.6728 40.4277 70.44 40.4277L70.4372 40.4277C70.2043 40.4277 70.0156 40.7177 70.0156 41.0752Z" fill="white"/>
</g>
<g opacity="0.3">
<path d="M70.0156 50.209L70.0156 54.3646C70.0156 54.7221 70.2043 55.0121 70.4372 55.0121L70.44 55.0121C70.6728 55.0121 70.8615 54.7225 70.8615 54.3646L70.8615 50.209C70.8615 49.8515 70.6728 49.5615 70.44 49.5615L70.4372 49.5615C70.2043 49.5619 70.0156 49.8515 70.0156 50.209Z" fill="white"/>
</g>
<g opacity="0.3">
<path d="M68.8288 47.041C69.03 47.2158 69.2855 47.1072 69.3993 46.7977L69.3993 46.7973C69.5163 46.4882 69.4481 46.0921 69.2469 45.9121L66.9027 43.8239L66.9017 43.8228C66.6998 43.6449 66.4422 43.7518 66.3263 44.062C66.3259 44.0627 66.3259 44.063 66.3256 44.0637C66.2097 44.3739 66.2793 44.7693 66.4812 44.9475L68.8225 47.0358C68.825 47.0379 68.8267 47.0396 68.8288 47.041Z" fill="white"/>
</g>
<g opacity="0.3">
<path d="M74.5522 51.3498C74.5526 51.3491 74.5526 51.3487 74.5529 51.348C74.6689 51.0379 74.5992 50.6424 74.3973 50.4642L72.056 48.3759C71.8541 48.1956 71.5948 48.3001 71.4768 48.6099C71.3598 48.9214 71.4291 49.3193 71.6317 49.4996L73.973 51.5879C74.1756 51.7675 74.4349 51.661 74.5522 51.3498Z" fill="white"/>
</g>
<g opacity="0.3">
<path d="M66.3266 51.3694C66.4432 51.6788 66.7008 51.7846 66.9024 51.6057L69.2465 49.5175C69.448 49.3361 69.5163 48.9382 69.399 48.6277L69.399 48.6274C69.2816 48.3182 69.0237 48.2138 68.8225 48.3938L66.4812 50.482L66.4801 50.4831C66.2786 50.662 66.2097 51.0582 66.3263 51.3676C66.3263 51.3676 66.3263 51.3687 66.3266 51.3694Z" fill="white"/>
</g>
<g opacity="0.3">
<path d="M71.4791 46.8045C71.5967 47.113 71.855 47.2167 72.0559 47.036L74.3972 44.9478L74.3983 44.9467C74.5998 44.7678 74.6687 44.3716 74.5521 44.0622C74.4348 43.751 74.1755 43.6445 73.9729 43.8241L71.6316 45.9123L71.6305 45.9134C71.429 46.0923 71.36 46.4885 71.4767 46.7979C71.4774 46.8 71.478 46.8021 71.4791 46.8045Z" fill="white"/>
</g>
<path d="M70.4363 46.6299C70.0444 46.6299 69.7266 47.1179 69.7266 47.7201C69.7266 48.3224 70.0444 48.8104 70.4363 48.8104C70.8283 48.8104 71.1461 48.3224 71.1461 47.7201C71.1465 47.1179 70.8283 46.6299 70.4363 46.6299Z" fill="#263238"/>
<path d="M124.245 60.9444C124.245 60.9444 129.153 60.9443 131.201 60.9001C133.652 60.8476 136.133 59.9286 137.994 57.0714C141.356 51.9073 141.356 43.5351 137.994 38.371C136.313 35.7892 133.075 34.498 130.872 34.498C128.669 34.498 124.31 34.498 124.31 34.498C120.948 39.6621 120.883 55.7806 124.245 60.9444Z" fill="black"/>
<path d="M124.309 60.9447C129.064 60.9447 132.918 55.0244 132.918 47.7214C132.918 40.4183 129.064 34.498 124.309 34.498C119.554 34.498 115.699 40.4183 115.699 47.7214C115.699 55.0244 119.554 60.9447 124.309 60.9447Z" fill="#263238"/>
<path opacity="0.3" d="M124.309 60.9447C129.064 60.9447 132.918 55.0244 132.918 47.7214C132.918 40.4183 129.064 34.498 124.309 34.498C119.554 34.498 115.699 40.4183 115.699 47.7214C115.699 55.0244 119.554 60.9447 124.309 60.9447Z" fill="black"/>
<path opacity="0.4" d="M124.31 55.8286C127.225 55.8286 129.588 52.199 129.588 47.7217C129.588 43.2443 127.225 39.6147 124.31 39.6147C121.394 39.6147 119.031 43.2443 119.031 47.7217C119.031 52.199 121.394 55.8286 124.31 55.8286Z" fill="white"/>
<g opacity="0.3">
<path d="M123.887 41.0752L123.887 45.2308C123.887 45.5883 124.075 45.8783 124.308 45.8783L124.311 45.8783C124.544 45.8783 124.733 45.5883 124.733 45.2308L124.733 41.0752C124.733 40.7177 124.544 40.4277 124.311 40.4277L124.308 40.4277C124.075 40.4277 123.887 40.7177 123.887 41.0752Z" fill="white"/>
</g>
<g opacity="0.3">
<path d="M123.887 50.209L123.887 54.3646C123.887 54.7221 124.075 55.0121 124.308 55.0121L124.311 55.0121C124.544 55.0121 124.733 54.7225 124.733 54.3646L124.733 50.209C124.733 49.8515 124.544 49.5615 124.311 49.5615L124.308 49.5615C124.075 49.5619 123.887 49.8515 123.887 50.209Z" fill="white"/>
</g>
<g opacity="0.3">
<path d="M122.7 47.041C122.901 47.2158 123.157 47.1072 123.27 46.7977L123.27 46.7973C123.387 46.4882 123.319 46.0921 123.118 45.9121L120.774 43.8239L120.773 43.8228C120.571 43.6449 120.313 43.7518 120.197 44.062C120.197 44.0627 120.197 44.063 120.197 44.0637C120.081 44.3739 120.15 44.7693 120.352 44.9475L122.694 47.0358C122.696 47.0379 122.698 47.0396 122.7 47.041Z" fill="white"/>
</g>
<g opacity="0.3">
<path d="M128.423 51.3503C128.424 51.3496 128.424 51.3492 128.424 51.3485C128.54 51.0384 128.47 50.6429 128.268 50.4647L125.927 48.3764C125.725 48.1961 125.466 48.3005 125.348 48.6104C125.231 48.9219 125.3 49.3198 125.503 49.5001L127.844 51.5884C128.047 51.768 128.306 51.6615 128.423 51.3503Z" fill="white"/>
</g>
<g opacity="0.3">
<path d="M120.198 51.3694C120.314 51.6788 120.572 51.7846 120.773 51.6057L123.118 49.5175C123.319 49.3361 123.387 48.9382 123.27 48.6277L123.27 48.6274C123.153 48.3182 122.895 48.2138 122.694 48.3938L120.352 50.482L120.351 50.4831C120.15 50.662 120.081 51.0582 120.197 51.3676C120.197 51.3676 120.198 51.3687 120.198 51.3694Z" fill="white"/>
</g>
<g opacity="0.3">
<path d="M125.35 46.8045C125.468 47.113 125.726 47.2167 125.927 47.036L128.268 44.9478L128.269 44.9467C128.471 44.7678 128.54 44.3716 128.423 44.0622C128.306 43.751 128.047 43.6445 127.844 43.8241L125.503 45.9123L125.502 45.9134C125.3 46.0923 125.231 46.4885 125.348 46.7979C125.348 46.8 125.349 46.8021 125.35 46.8045Z" fill="white"/>
</g>
<path d="M124.307 46.6299C123.915 46.6299 123.598 47.1179 123.598 47.7201C123.598 48.3224 123.915 48.8104 124.307 48.8104C124.699 48.8104 125.017 48.3224 125.017 47.7201C125.017 47.1179 124.699 46.6299 124.307 46.6299Z" fill="#263238"/>
<path d="M1.0857 30.5474C1.82437 26.6076 3.05561 20.2053 3.67105 19.4666C4.28649 18.728 7.48763 18.4815 7.48763 18.4815C10.8117 14.7882 21.4002 8.50912 26.8173 5.80019C32.2345 3.09162 36.4208 2.47618 56.9814 1.24494C77.5423 0.0137071 89.7307 2.96874 89.7307 2.96874C100.196 4.07674 117.556 18.9741 117.556 18.9741C127.383 20.8138 134.053 25.8689 134.053 25.8689C134.053 25.8689 139.347 26.6076 141.687 29.1929C144.026 31.7786 144.272 34.7333 144.272 34.7333C144.272 34.7333 145.626 34.7333 146.365 35.8413C147.104 36.9493 146.735 44.5828 146.365 48.3994C145.996 52.216 143.041 53.9398 143.041 53.9398L83.2654 53.5743H83.2505C81.9844 53.5666 80.9735 52.5293 80.9836 51.2633C81.0275 45.9143 80.0786 33.0774 69.96 33.0774C69.96 33.0774 62.9663 33.1578 61.8409 42.724C60.8759 50.9263 61.27 53.0274 61.4019 53.4605L19.9225 53.9402L19.6767 53.8872C19.8198 51.2862 20.8934 38.9958 14.647 34.5105C12.7774 33.1679 9.55048 33.012 7.6039 34.2408C5.63504 35.4838 3.35219 38.0358 2.82865 43.25C2.57627 45.246 2.57488 47.0481 2.65181 49.5116L1.08501 48.6462C0.839246 47.1682 0.346684 34.4872 1.0857 30.5474Z" fill="#34A853"/>
<path d="M138.532 33.4516C138.837 33.8585 141.808 38.0371 141.808 38.0371C142.573 38.4444 139.345 40.8087 139.345 40.4272L113.919 40.4272L107.043 38.0779C107.277 37.5049 109.939 33.7569 112.178 33.4516C114.416 33.1463 138.532 33.4516 138.532 33.4516Z" fill="#263238"/>
<path d="M36.0884 18.8071C36.0884 18.8071 33.6291 20.4825 33.5103 22.7657C33.3916 25.0489 34.0513 36.5049 34.1195 38.9712C34.2368 43.209 34.7921 50.7287 34.7921 50.7287" stroke="#263238" stroke-width="0.25" stroke-miterlimit="10" stroke-linecap="round" stroke-linejoin="round"/>
<path d="M63.3464 19.6829C63.3464 19.6829 60.0248 20.7638 59.2203 24.4721C58.5923 27.3673 59.3745 51.5923 59.1688 51.7197L21.3201 50.1815L20.6597 44.442C18.4135 33.882 13.4067 32.6358 12.9194 31.3917C12.432 30.1472 11.8194 20.2396 11.9416 19.0209C12.0634 17.8025 16.7937 14.6706 17.2191 14.2104" stroke="#263238" stroke-width="0.25" stroke-miterlimit="10" stroke-linecap="round" stroke-linejoin="round"/>
<path d="M113.921 18.6193L68.6511 18.6193C68.6511 18.6193 57.1317 7.80696 53.7969 4.37155C57.9696 3.74671 82.533 3.29383 90.0732 4.37155C90.0732 4.37155 103.008 6.69547 113.921 18.6193Z" fill="#263238"/>
<path d="M63.4797 18.6193C63.4797 18.6193 51.4744 6.43713 49.0028 5.37786C46.5313 4.31858 38.2336 4.93646 34.879 5.37786C31.5247 5.81925 19.3373 11.1205 17.2188 14.2099C17.2188 14.2099 19.1664 17.0299 22.6091 17.9126C26.0518 18.7954 25.169 18.1779 32.4075 18.6193C39.6459 19.0607 63.4797 19.7663 63.4797 19.7663L63.4797 18.6193Z" fill="#263238"/>
<path d="M134.053 25.7593C134.053 25.7593 139.041 29.5863 138.532 33.453" stroke="#263238" stroke-width="0.25" stroke-miterlimit="10" stroke-linecap="round" stroke-linejoin="round"/>
<path opacity="0.7" d="M144.272 34.6242C143.981 35.0273 143.752 37.2826 141.635 37.3018L139.346 34.4724C139.346 34.4724 140.381 30.0887 139.733 27.5991C139.733 27.5991 141.793 28.8895 142.546 30.1786C143.3 31.4679 144.272 34.6242 144.272 34.6242Z" fill="white"/>
<path opacity="0.3" d="M85.9551 26.9027C85.9551 26.9027 82.3909 23.3346 69.1766 20.6167L63.4807 19.7666C62.4819 19.8341 61.4564 20.5867 60.4153 21.7529C56.1503 22.5848 28.5508 20.325 28.5508 20.325C28.5508 20.325 56.8215 22.5337 65.3228 23.0917C73.8238 23.6493 73.6055 23.6869 85.9551 26.9027Z" fill="black"/>
<path d="M3.19345 20.671C3.28047 20.6233 6.2362 21.0647 8.22247 21.5761C8.22247 21.5761 4.31538 25.9542 3.01592 26.1648L1.97266 25.9674C1.97266 25.9674 2.15193 21.2409 3.19345 20.671Z" fill="#D7504D"/>
<path d="M87.4209 28.6916C87.4209 28.6916 87.9636 27.5516 85.5217 26.7374C83.0797 25.9235 70.6661 23.2779 69.9539 22.0568C69.2417 20.8356 68.6523 18.6196 68.6523 18.6196" stroke="#263238" stroke-width="0.25" stroke-miterlimit="10" stroke-linecap="round" stroke-linejoin="round"/>
<path opacity="0.3" d="M57.8292 49.0415C57.8292 49.0415 23.3526 48.558 22.9119 47.897C22.4712 47.2359 25.4356 45.2361 25.4356 45.2361C25.8763 44.9318 57.6078 47.1162 57.8292 49.0415Z" fill="white"/>
<path d="M127.686 35.0787C129.5 35.0787 130.97 34.4521 130.97 33.679C130.97 32.906 129.5 32.2793 127.686 32.2793C125.873 32.2793 124.402 32.906 124.402 33.679C124.402 34.4521 125.873 35.0787 127.686 35.0787Z" fill="#E0E0E0"/>
<path d="M140.371 47.5894C140.371 47.5894 143.047 48.8422 142.943 48.8467C142.838 48.8516 142.315 51.572 142.315 51.572L101.204 51.0039L97.332 47.7209L109.676 47.5518L140.371 47.5894Z" fill="#263238"/>
<path d="M86.9785 47.7197C87.1045 47.9314 90.8515 47.7197 90.8515 47.7197L94.6441 50.9212L89.0685 50.791L86.9785 47.7197Z" fill="#263238"/>
<path d="M112.138 33.6793L107.65 33.2065" stroke="#263238" stroke-width="0.25" stroke-miterlimit="10" stroke-linecap="round" stroke-linejoin="round"/>
<path opacity="0.7" d="M107.652 32.9707C107.652 32.9707 85.567 28.0082 83.8606 28.1791C82.1542 28.3504 77.4333 29.7313 77.7755 31.0148C78.1177 32.2982 81.7264 34.2542 86.518 35.0242C90.3346 35.6375 96.5287 36.3933 100.636 36.6498C105.648 36.9635 107.652 32.9707 107.652 32.9707Z" fill="white"/>
<path opacity="0.3" d="M106.662 42.2576C106.662 42.2576 98.2514 38.1535 95.0029 38.1535C91.7544 38.1535 77.2637 33.9004 77.2637 33.9004C77.2637 33.9004 88.1049 40.7656 90.5027 41.3358C92.9004 41.906 106.662 42.2576 106.662 42.2576Z" fill="black"/>
<path opacity="0.3" d="M111.357 17.6615C111.357 17.6615 99.1302 6.56261 88.9259 5.52771C78.7217 4.4928 72.3535 4.79216 72.3535 4.79216C72.3535 4.79216 75.3855 12.5639 80.9854 14.1018C86.5849 15.64 111.357 17.6615 111.357 17.6615Z" fill="white"/>
<path opacity="0.3" d="M145.941 36.668C145.941 36.668 146.231 38.8593 145.7 39.8733C145.169 40.8877 140.242 42.2317 140.242 42.2317L145.941 36.668Z" fill="black"/>
<path opacity="0.7" d="M86.1387 32.3155C86.1387 33.6811 87.6226 34.788 89.4533 34.788C91.284 34.788 92.7679 33.6811 92.7679 32.3155C92.7679 30.9499 91.284 29.8433 89.4533 29.8433C87.6226 29.8429 86.1387 30.9499 86.1387 32.3155Z" fill="white"/>
<path opacity="0.7" d="M88.6184 29.6524L83.8602 29.1824C83.8602 29.1824 82.4424 32.15 85.262 33.8884C85.262 33.8884 81.7866 32.864 82.8451 29.1824C82.9123 28.858 83.0599 28.5235 83.8599 28.6913C84.1185 28.7452 88.6184 29.6524 88.6184 29.6524Z" fill="white"/>
<path opacity="0.3" d="M114.746 19.2384C114.746 19.2384 133.053 22.2345 136.313 31.2678C136.313 31.2678 89.2521 19.5629 89.4557 19.2384C89.659 18.914 114.746 19.2384 114.746 19.2384Z" fill="white"/>
<path d="M63.4797 18.6193C63.4797 18.6193 51.4744 6.43713 49.0028 5.37786C46.5313 4.31858 38.2336 4.93646 34.879 5.37786C31.5247 5.81925 19.3373 11.1205 17.2188 14.2099C17.2188 14.2099 19.1664 17.0299 22.6091 17.9126C26.0518 18.7954 25.169 18.1779 32.4075 18.6193C39.6459 19.0607 63.4797 19.7663 63.4797 19.7663L63.4797 18.6193Z" stroke="black" stroke-width="0.25" stroke-miterlimit="10"/>
<path opacity="0.3" d="M40.8305 27.4659L36.4524 27.1199C36.0361 27.0868 35.7252 26.7227 35.7583 26.3063L35.8175 25.5593C35.8505 25.143 36.2146 24.8321 36.631 24.8652L41.009 25.2112C41.4254 25.2439 41.7362 25.6084 41.7031 26.0247L41.644 26.7718C41.6109 27.1877 41.2468 27.4986 40.8305 27.4659Z" fill="black"/>
<path opacity="0.3" d="M19.6937 25.2071L15.3157 24.8611C14.8993 24.828 14.5885 24.4639 14.6216 24.0475L14.6807 23.3005C14.7135 22.8842 15.0779 22.5733 15.4942 22.6064L19.8723 22.9524C20.2886 22.9855 20.5995 23.3496 20.5664 23.7659L20.5072 24.513C20.4742 24.9289 20.1101 25.2398 19.6937 25.2071Z" fill="black"/>
<path d="M37.6363 5.08662C37.4107 5.10576 34.793 18.8081 34.793 18.8081L38.588 18.8081L40.3497 4.89551C40.3497 4.89551 37.8618 5.06747 37.6363 5.08662Z" fill="black"/>
<path d="M59.4554 14.6147L57.418 19.4784L63.4808 19.767L63.4808 18.5163L59.4554 14.6147Z" fill="black"/>
<path d="M50.7603 16.1041C50.7916 16.0613 50.824 16.0174 50.8567 15.9722C51.6483 14.8836 55.1617 13.4978 58.5268 14.6361C60.982 15.4664 60.5392 18.3514 60.1204 19.851C59.9192 20.5709 59.3166 21.1035 58.5769 21.2114C56.5635 21.5059 52.8454 21.2163 51.8958 20.7227C51.8446 20.6962 51.7942 20.6687 51.7447 20.6412C50.1194 19.7313 49.6568 17.6051 50.7603 16.1041Z" fill="#34A853" stroke="black" stroke-width="0.25" stroke-miterlimit="10" stroke-linecap="round" stroke-linejoin="round"/>
<path opacity="0.3" d="M58.9439 15.5279C58.9439 15.5279 58.1189 14.8906 56.6562 14.8154C55.1935 14.7405 51.3668 15.0333 50.8433 17.1901C50.3197 19.3466 60.7725 16.1959 58.9439 15.5279Z" fill="white"/>
<path d="M20.9512 7.65607C24.9328 5.23503 29.0859 3.29958 34.265 2.13379" stroke="#34A853" stroke-miterlimit="10" stroke-linecap="round" stroke-linejoin="round"/>
<path d="M35.6621 1.5948L37.8959 1.27246" stroke="#34A853" stroke-miterlimit="10" stroke-linecap="round" stroke-linejoin="round"/>
</svg>
